<svg xmlns="http://www.w3.org/2000/svg" width="185" height="287" fill="none"><path fill="#B28B67" fill-rule="evenodd" d="M89.773 27.162c-3.282-3.854-5.504-8.576-5.133-13.867 1.07-15.246 22.293-11.892 26.421-4.198 4.129 7.695 3.638 27.214-1.697 28.59-2.128.548-6.661-.795-11.274-3.576l2.895 20.486H83.887l5.886-27.435Z" clip-rule="evenodd"/><path fill="#191847" fill-rule="evenodd" d="M103.521 10.213c-2.321 1.298-3.972 3.73-5.96 6.92a4.274 4.274 0 0 0-4.55 7.038 64.815 64.815 0 0 1-3.367 4.36c-4.74-2.844-8.266-11.133-3.74-19.134 3.894-16.027 25.959-6.08 30.204-8.782.928 5.816-2.065 10.505-12.587 9.598Z" clip-rule="evenodd"/><path fill="#997659" fill-rule="evenodd" d="m83.199 116.446 34.966 88.501 23.453 74.821h9.261l-35.854-163.322H83.199Z" clip-rule="evenodd"/><path fill="#B28B67" fill-rule="evenodd" d="M76.158 116.446c-.373 31.1-5.803 72.971-6.67 74.91-.579 1.292-20.545 17.727-59.9 49.306l6.379 6.825c46.434-27.074 70.726-42.417 72.875-46.028 3.223-5.416 13.716-55.26 22.141-85.013H76.158Z" clip-rule="evenodd"/><path fill="#E4E4E4" fill-rule="evenodd" d="M8.735 238.383c-2.142.757-3.618 1.475-4.427 2.154-.984.826-2.282 2.195-3.895 4.107l25.828 30.781c3.316-1.419 4.356-3.078 3.12-4.979a220.398 220.398 0 0 1-3.032-4.774l-5.627-19.658a.711.711 0 0 0-.9-.484l-3.003.953c-2.083-.971-3.543-1.955-4.38-2.953-.68-.81-1.292-2.204-1.835-4.181a1.424 1.424 0 0 0-1.849-.966ZM137.826 276.314c-.797 2.128-1.196 3.72-1.196 4.776 0 1.285.214 3.159.642 5.624h40.182c1.044-3.452.442-5.316-1.808-5.591-2.25-.275-4.119-.524-5.607-.745l-18.676-8.326a.713.713 0 0 0-.949.379l-1.2 2.912c-2.083.972-3.775 1.458-5.077 1.458-1.058 0-2.519-.428-4.383-1.282a1.425 1.425 0 0 0-1.928.795Z" clip-rule="evenodd"/><path fill="#69A1AC" fill-rule="evenodd" d="m106.709 272.062 44.03-4.779-32.632-150.837H78.671l28.038 155.616Z" clip-rule="evenodd"/><path fill="#89C5CC" fill-rule="evenodd" d="m18.696 229.65 28.882 34.185c30.42-33.224 48.155-54.903 53.205-65.036 5.05-10.134 9.59-37.585 13.619-82.353H70.003c-2.2 39.385-3.684 59.994-4.45 61.827-.767 1.833-16.386 18.958-46.857 51.377Z" clip-rule="evenodd"/><path fill="#B28B67" fill-rule="evenodd" d="m147.476 107.834 20.938 20.293c6.092 2.582 11.083 5.433 14.974 8.553.875 1.049 1.828 3.058-2.289 2.159s-8.488-1.661-9.262-.331c-.774 1.33 1.506 3.369.076 5.11-.953 1.16-4.159-2.531-9.619-11.076l-21.772-12.753 6.954-11.955ZM45.094 89.467l16.184.06c-12.327 39.68-18.87 60.456-19.63 62.327-1.71 4.211 1.909 10.625 3.456 14.071-5.04 2.241-4.503-6.058-10.862-3.119-5.804 2.683-10.219 7.544-16.924 3.433-.825-.505-1.728-2.408.454-3.895 5.439-3.705 13.275-10.189 14.334-12.324 1.444-2.91 5.773-23.094 12.987-60.553Z" clip-rule="evenodd"/><path fill="#700BEF" fill-rule="evenodd" d="m94.41 43.852 6.391-1.09c10.068 35.36 61.797 59.463 64.973 72.682 1.164 4.847-2.347 7.298-.533 8.774l-8.307 6.042c-1.407-1.63-4.409 1.353-10.678-.734-6.269-2.087-51.846-43.805-51.846-85.674Z" clip-rule="evenodd"/><path fill="#700BEF" fill-rule="evenodd" d="M105.161 48.553c-.737 46.814 26.501 58.755 20.434 77.535-5.01 15.508-52.964 32.179-61.262 16.978-3.36-6.154-4.883-13.596-5.056-21.687-2.121 6.216-3.799 11.568-5.032 16.054-2.129 7.74-10.38 8.97-10.38 11.952l-10.873-2.982c.738-4.05-4.388-6.023-3.013-15.073 6.157-40.548 22.7-69.94 49.63-88.177l.285-4.046a2.857 2.857 0 0 1 3.043-2.645l20.12 1.398a2.845 2.845 0 0 1 2.645 3.038s0 .002-.002.002l-.539 7.653Z" clip-rule="evenodd"/></svg>