<svg xmlns="http://www.w3.org/2000/svg" width="341" height="225" fill="none"><g clip-path="url(#a)"><path fill="#F2F2F2" d="M261.078 222.456c-4.366-4.072-7.018-10.503-6.322-16.764.695-6.261 5.002-12.017 10.589-13.347 5.588-1.329 11.957 2.351 13.654 8.375.934-11.614 2.01-23.713 7.604-33.603 5.066-8.955 13.84-15.362 23.349-16.509 9.508-1.146 19.52 3.184 25.45 11.467 5.931 8.283 7.383 20.324 3.229 29.834-3.06 7.005-8.697 12.219-14.603 16.46-19.085 13.591-41.975 19.117-64.458 15.563l1.508-1.476Z"/><path fill="#fff" d="M325.999 154.032c-7.846 7.052-15.044 14.941-21.489 23.55-10.088 13.427-18.25 28.482-24.204 44.639-.436 1.179 1.298 1.692 1.729.527 9.742-26.259 25.293-49.404 45.232-67.317.896-.805-.38-2.198-1.268-1.399Z"/><path fill="#F2F2F2" d="M109.773 221.349c5.997-5.592 9.639-14.425 8.684-23.025-.955-8.6-6.871-16.505-14.545-18.331-7.675-1.827-16.422 3.229-18.753 11.502-1.283-15.951-2.761-32.57-10.445-46.153-6.958-12.3-19.009-21.1-32.069-22.675-13.06-1.574-26.811 4.372-34.956 15.749-8.146 11.377-10.14 27.916-4.435 40.978 4.202 9.622 11.945 16.782 20.057 22.608 25.88 18.586 57.985 26.337 88.533 21.376"/><path fill="#fff" d="M20.604 127.369c10.776 9.687 20.662 20.522 29.515 32.346 8.855 11.813 16.65 24.546 23.277 38.02a247.836 247.836 0 0 1 9.968 23.293c.598 1.619-1.784 2.323-2.376.722-5.2-14.031-11.634-27.465-19.21-40.111-7.537-12.6-16.165-24.363-25.762-35.125a220.41 220.41 0 0 0-17.154-17.223c-1.23-1.105.522-3.018 1.742-1.922Z"/><path fill="#F2F2F2" d="M244.775 224.507H101.712v-162C101.712 28.041 127.119 0 158.349 0h29.789c31.23 0 56.637 28.04 56.637 62.507v162Z"/><path fill="#CCC" d="M214.987 224.507H101.712v-162c-.031-13.206 3.758-26.08 10.816-36.745.26-.391.52-.777.788-1.16 3.414-4.941 7.476-9.293 12.054-12.912.258-.208.518-.412.781-.616a54.879 54.879 0 0 1 13.123-7.44A52.054 52.054 0 0 1 151.467.46a51.986 51.986 0 0 1 12.979-.1 52.046 52.046 0 0 1 12.979 3.273c.264.105.528.213.787.322a54.7 54.7 0 0 1 12.979 7.622 59.098 59.098 0 0 1 7.206 6.733 61.013 61.013 0 0 1 4.987 6.294c.267.38.526.767.786 1.158 7.059 10.665 10.848 23.538 10.817 36.745v162Z"/><path fill="#700BEF" d="M205.776 152.051c3.463 0 6.271-3.099 6.271-6.921 0-3.823-2.808-6.922-6.271-6.922-3.464 0-6.271 3.099-6.271 6.922 0 3.822 2.807 6.921 6.271 6.921Z"/><path fill="#FFB8B8" d="M233.056 219.655h-4.806l-2.286-20.455h7.092v20.455Z"/><path fill="#2F2E41" d="M224.818 218.14h9.267v6.44h-15.102c0-.846.151-1.683.444-2.465a6.517 6.517 0 0 1 1.265-2.089 5.84 5.84 0 0 1 1.893-1.396 5.355 5.355 0 0 1 2.233-.49Z"/><path fill="#FFB8B8" d="M256.965 219.655h-4.806l-2.286-20.455h7.092v20.455Z"/><path fill="#2F2E41" d="M248.727 218.14h9.267v6.44h-15.102c0-.846.151-1.683.444-2.465a6.517 6.517 0 0 1 1.265-2.089 5.84 5.84 0 0 1 1.893-1.396 5.358 5.358 0 0 1 2.233-.49Z"/><path fill="#FFB8B8" d="M208.95 146.501a4.915 4.915 0 0 1-.673-1.872 5.097 5.097 0 0 1 .107-2.01 4.819 4.819 0 0 1 .868-1.772 4.275 4.275 0 0 1 1.466-1.2l16.335-49.688 8.038 4.84-18.652 47.485a5.127 5.127 0 0 1-.028 3.319c-.378 1.066-1.096 1.941-2.019 2.461a3.872 3.872 0 0 1-2.99.359c-1.003-.288-1.876-.972-2.452-1.922ZM254.51 155.837a4.397 4.397 0 0 1-1.349-1.356 4.924 4.924 0 0 1-.702-1.859 5.106 5.106 0 0 1 .077-2.012 4.823 4.823 0 0 1 .84-1.787l-5.06-52.563 9.147.462 2.103 51.701c.749.791 1.209 1.858 1.293 2.998a5.024 5.024 0 0 1-.837 3.188c-.623.914-1.529 1.544-2.545 1.77a3.894 3.894 0 0 1-2.967-.542ZM239.917 80.755c5.317 0 9.627-4.757 9.627-10.624 0-5.868-4.31-10.625-9.627-10.625-5.316 0-9.626 4.757-9.626 10.624 0 5.868 4.31 10.625 9.626 10.625Z"/><path fill="#700BEF" d="M254.449 143.883h-29.023l.035-.249c.052-.373 5.172-37.392 1.396-49.502a5.606 5.606 0 0 1 .093-3.658c.439-1.165 1.253-2.109 2.285-2.65h.001c5.397-2.806 15.759-6.26 24.505 2.123 1.287 1.254 2.291 2.82 2.935 4.577.643 1.757.908 3.654.772 5.543l-2.999 43.816Z"/><path fill="#700BEF" d="m231 111.713-13.067-2.925 6.125-16.019c.367-1.551 1.276-2.879 2.528-3.691 1.252-.813 2.746-1.044 4.152-.644 1.407.401 2.612 1.401 3.352 2.781a6.603 6.603 0 0 1 .592 4.581L231 111.713ZM247.735 117.145l-.786-19.873c-.596-3.736 1.342-7.267 4.322-7.845 2.981-.575 5.892 2.016 6.491 5.78l2.952 18.569-12.979 3.369Z"/><path fill="#2F2E41" d="M253.483 141.504c4.67 19.629 5.179 44.585 3.92 71.808l-6.272-.865-11.366-51.91-6.272 52.775-7.055-.433c-2.108-28.563-4.16-53.084-.784-69.212l27.829-2.163ZM246.26 78.341c-1.795 2.112-5.131.978-5.365-1.906a3.879 3.879 0 0 1 .004-.673c.121-1.278.79-2.438.63-3.787a2.115 2.115 0 0 0-.33-.93c-1.431-2.114-4.79.947-6.141-.968-.828-1.174.145-3.022-.49-4.334-.839-1.732-3.323-.878-4.881-1.826-1.734-1.056-1.63-3.991-.489-5.776 1.392-2.178 3.832-3.34 6.241-3.507 2.41-.168 4.803.551 7.052 1.519 2.556 1.1 5.091 2.618 6.664 5.099 1.913 3.016 2.097 7.071 1.14 10.599-.582 2.145-2.568 4.766-4.035 6.49Z"/><path fill="#3F3D56" d="M329.234 224.786H39.857a.447.447 0 0 1-.33-.152.541.541 0 0 1-.136-.363c0-.137.05-.267.137-.364a.446.446 0 0 1 .329-.151h289.377c.124 0 .242.055.329.151a.54.54 0 0 1 .137.364.538.538 0 0 1-.137.363.446.446 0 0 1-.329.152Z"/><path fill="#fff" d="M183.826 177.573h-50.954a2.415 2.415 0 0 1-1.793-.806 2.947 2.947 0 0 1-.754-1.969V49.278c.005-.742.276-1.45.754-1.97a2.414 2.414 0 0 1 1.793-.806h50.954a2.416 2.416 0 0 1 1.794.806c.478.52.749 1.228.754 1.97v125.52a2.947 2.947 0 0 1-.754 1.969c-.477.52-1.123.81-1.794.806Z"/><path fill="#CCC" d="M186.374 87.117h-56.049v.865h56.049v-.865ZM186.57 136.478h-56.049v.865h56.049v-.865Z"/><path fill="#CCC" d="M148.747 46.502h-.784v131.503h.784V46.502ZM168.344 46.502h-.784v131.503h.784V46.502Z"/></g><defs><clipPath id="a"><path fill="#fff" d="M0 0h341v225H0z"/></clipPath></defs></svg>