<svg xmlns="http://www.w3.org/2000/svg" width="363" height="415" fill="none"><g clip-path="url(#a)"><path fill="#F2F2F2" d="m174.201 389.321-.463-10.412a9.993 9.993 0 0 0-.144-.076c-4.957-2.604-10.639 2.109-9.055 7.484 1.489 5.057 2.49 10.508 5.217 14.935a20.201 20.201 0 0 0 14.819 9.347l6.298 3.859a33.913 33.913 0 0 0-7.137-27.465 32.724 32.724 0 0 0-6.012-5.59c-1.508 3.981-3.523 7.918-3.523 7.918Z"/><path fill="#E6E6E6" d="M117.814 283.659c-12.125-12.517-29.697-19.695-48.209-19.695l-.714.002a68.794 68.794 0 0 1-34.702-9.38l-1.096-.64.883-.91a67.173 67.173 0 0 0 11.832-16.768 20.262 20.262 0 0 1-16.374 5.294 20.759 20.759 0 0 1-15.252-9.778C7.712 221.277 0 206.367 0 195.009a69.166 69.166 0 0 1 5.897-27.874 69.116 69.116 0 0 1 16.63-23.125 43.067 43.067 0 0 0 14.204-32.09l-.004-.86a97.698 97.698 0 0 1 2.895-23.62l.195-.78.802.028a65.862 65.862 0 0 0 15.415-1.293 51.994 51.994 0 0 1-13.825-3.68l-.863-.35.293-.885c20.182-12.507 65.739-6.03 92.182-66.586 21.441-49.102 97.093 43.589 97.093 97.166 0 5.467-5.405 12.691-1.359 16.304 43.742 39.061 13.561 64.143 4.045 89.382-2.258 5.988 2.638 12.562 2.638 19.041 0 1.099-.028 2.234-.084 3.372l-.084 1.751-1.458-.972a48.24 48.24 0 0 1-7.978-6.549 42.171 42.171 0 0 1-1.335 36.379c-4.584 8.66-9.019 14.86-13.182 18.426a68.782 68.782 0 0 1-48.051 16.469 68.793 68.793 0 0 1-46.252-21.004Z"/><path fill="#3F3D56" d="M191.047 413.945a1.241 1.241 0 0 0 1.225-1.066c.053-.37 5.209-37.589.578-87.054-4.276-45.682-18.009-111.481-59.147-165.52a1.235 1.235 0 0 0-1.737-.236c-.13.099-.239.222-.32.363a1.228 1.228 0 0 0 .086 1.376c40.783 53.573 54.405 118.889 58.651 164.248 4.603 49.178-.512 86.106-.564 86.474a1.234 1.234 0 0 0 1.228 1.415Z"/><path fill="#3F3D56" d="M157.476 236.53a1.24 1.24 0 0 0 .729-2.243c-.149-.109-15.198-10.963-37.697-19.208-20.798-7.622-52.425-14.531-84.985-4.159a1.233 1.233 0 0 0-.86 1.077 1.24 1.24 0 0 0 1.612 1.286c31.892-10.159 62.946-3.364 83.381 4.125 22.178 8.128 36.946 18.778 37.093 18.885.211.154.466.237.727.237ZM214.181 95.168a1.236 1.236 0 0 0-.184-.744 1.236 1.236 0 0 0-1.999-.146c-.119.142-12.019 14.385-21.855 36.252-9.093 20.215-18.255 51.292-10.265 84.544a1.238 1.238 0 1 0 2.409-.58c-7.826-32.571 1.181-63.084 10.115-82.946 9.697-21.555 21.373-35.532 21.49-35.67.169-.2.27-.449.289-.71Z"/><path fill="#2F2E41" d="M212.504 159.112c1.045 8.442 6.889 15.402 15.387 15.402a15.38 15.38 0 0 0 10.881-4.511 15.408 15.408 0 0 0 4.507-10.891c0-8.506-6.926-14.615-15.388-15.402-8.978-.834-16.729 4.564-15.387 15.402Z"/><path fill="#FFB6B6" d="m235.018 407.161 5.86-.001 2.787-22.623-8.648.001.001 22.623Z"/><path fill="#2F2E41" d="M234.812 413.279h18.02v-.228a7.02 7.02 0 0 0-7.014-7.021l-3.292-2.499-6.141 2.5h-1.573v7.248Z"/><path fill="#FFB6B6" d="m211.937 407.161 5.86-.001 2.787-22.623-8.648.001.001 22.623Z"/><path fill="#2F2E41" d="M211.731 413.279h18.019v-.228a7.023 7.023 0 0 0-2.054-4.964 7.008 7.008 0 0 0-4.959-2.057h-.001l-3.291-2.499-6.141 2.5h-1.573v7.248ZM255.183 265.468l4.143 14.217-4.881 60.213s2.514 3.765.738 3.765c-1.775 0-4.052.835-2.618 3.083 1.435 2.248-3.468 10.32-3.468 10.32l-6.934 42.873-8.836-.131s-4.492-2.504-1.971-5.037 4.297-2.533 1.929-4.903c-2.367-2.369-2.367-1.655-2.367-3.493 0-1.838-2.372-24.297 3.253-32.912l-1.695-35.126-3.992 34.454-8.219 45.963-8.511-.07s-3.932-3.793-3.924-6.6c.007-2.808 2.428-3.041.626-4.702-1.803-1.66-1.803-27.17 3.524-41.35 0 0 3.013-7.922-.007-10.637-3.02-2.715-.004-5.821-.004-5.821s4.783-1.731-.004-6.717c-4.788-4.986-.026-40.252-.026-40.252s-5.234-14.235.067-19.833c5.3-5.597 43.177 2.696 43.177 2.696Z"/><path fill="#FFB6B6" d="m181.397 289.963 7.392-17.879 5.823 3.238-3.517 18.188a6.481 6.481 0 0 1-1.736 6.596 6.463 6.463 0 0 1-6.673 1.383 6.464 6.464 0 0 1-2.868-2.082 6.486 6.486 0 0 1-.758-6.779 6.485 6.485 0 0 1 2.337-2.665ZM305.429 148.579l-11.247 15.738-4.939-4.475 7.543-16.917a6.478 6.478 0 0 1 6.614-6.918 6.466 6.466 0 0 1 5.705 3.731 6.48 6.48 0 0 1-3.676 8.841Z"/><path fill="#700BEF" d="M256.299 266.926c7.295 11.325-29.373 25.698-43.443 19.928-2.463-1.011-10.938-4.348-5.145-8.975 5.792-4.626-.672-5.278-.825-8.289-.102-2.014 1.456-6.431-.169-6.242-1.626.189-3.528-2.595.012-3.794 3.539-1.198.038-2.291.069-3.428.338-12.414 9.853-32.159 9.853-32.159l-17.145 43.87s.126 7.59-2.06 5.271c-2.187-2.32-2.028 5.187-2.028 5.187s-3.251 2.271-1.381 3.535c1.869 1.264-2.013 5.15-2.013 5.15l-9.059-.648s.142-6.735 1.689-8.225c1.546-1.49.787-3.834.787-3.834s4.027-3.568 1.327-6.465c-3.473-3.726 9.187-66.661 13.556-66.038a16.648 16.648 0 0 1 11.884-12.707l9.785-2.697 1.737-6.899h13.777l2.4 4.533 10.474 4.731c1.973-2.786 3.447-5.722 11.526-6.674 0 0 21.769-19.825 20.706-21.373-1.063-1.548 2.312-5.172 2.312-5.172s2.882-.944 1.256-1.448c-1.627-.504 1.447-1.67 1.447-1.67s2.847-.748 1.504-1.734c-1.342-.986 4.481-1.634 4.481-1.634l7.556 6.171-1.527 2.592s.931 3.529-.284 2.241c-1.215-1.289-1.444 2.45-1.444 2.45s-.621 4.095-4.301 5.329c-3.68 1.233-6.47 12.953-6.47 12.953-8.679 11.295-18.922 20.106-31.06 25.907 4.731 5.434.216 60.257.216 60.257Z"/><path fill="#FFB6B6" d="M229.592 175.429c7.536 0 13.645-6.115 13.645-13.658 0-7.543-6.109-13.658-13.645-13.658s-13.645 6.115-13.645 13.658c0 7.543 6.109 13.658 13.645 13.658Z"/><path fill="#2F2E41" d="M215.463 163.259c.432 2.968 2.959 7.109 2.367 7.109-.592 0-4.799-12.235-.592-13.033 3.053-.578 3.735-.071 6.588-1.309l-.403.379c1.888 1.374 4.516.527 6.67-.367 2.16-.889 4.782-1.736 6.676-.367 1.189.859 1.692 2.351 2.432 3.619.74 1.274 2.107 2.476 3.516 2.085 1.13-.314 1.781-1.581 1.775-2.754-.006-1.173-1.532-2.289-1.018-3.341 1.523-3.119.154-5.245-3.166-6.712a566.551 566.551 0 0 1-3.622-.563 10.27 10.27 0 0 1 2.273-2.286 5.195 5.195 0 0 0-1.835-2.352c-.965-.575-2.16-.533-3.279-.474l-7.486.391c-1.847.095-3.759.207-5.41 1.054-2.059 1.061-3.409 3.128-4.391 5.231-2.202 4.727-1.853 8.53-1.095 13.69Z"/><path fill="#CACACA" d="m158.7 414.818 134.198.182a.704.704 0 0 0 .498-1.204.705.705 0 0 0-.498-.207l-134.198-.182a.707.707 0 0 0 0 1.411Z"/><path fill="#E6E6E6" d="M110.165 353.334c.247-1.702-1.534-3.37-3.978-3.726-2.444-.356-4.626.735-4.874 2.437-.247 1.702 1.534 3.37 3.978 3.726 2.444.356 4.626-.735 4.874-2.437Z"/><path fill="#3F3D56" d="M139.266 350.492c.247-1.702-1.534-3.37-3.978-3.726-2.444-.356-4.626.735-4.874 2.437-.247 1.702 1.534 3.37 3.978 3.726 2.444.356 4.626-.735 4.874-2.437Z"/><path fill="#FF6584" d="M102.196 329.752c.247-1.702-1.534-3.37-3.978-3.726-2.444-.356-4.626.735-4.874 2.437-.247 1.702 1.534 3.37 3.978 3.726 2.444.356 4.626-.735 4.874-2.437Z"/><path fill="#E6E6E6" d="M89.55 320.093c.013-1.563-.858-2.836-1.944-2.844-1.086-.008-1.976 1.252-1.988 2.814-.011 1.563.86 2.836 1.945 2.844 1.086.008 1.976-1.252 1.988-2.814Z"/><path fill="#3F3D56" d="M85.262 302.101c.012-1.562-.859-2.835-1.944-2.844-1.086-.008-1.976 1.252-1.988 2.815-.012 1.562.859 2.835 1.945 2.843 1.086.009 1.976-1.251 1.987-2.814Z"/><path fill="#E6E6E6" d="M118.609 333.765c.012-1.562-.859-2.835-1.945-2.844-1.086-.008-1.975 1.252-1.987 2.815-.012 1.562.859 2.835 1.945 2.843 1.085.009 1.975-1.251 1.987-2.814Z"/><path fill="#FF6584" d="M104.546 340.793c.012-1.562-.859-2.835-1.945-2.844-1.086-.008-1.975 1.252-1.987 2.815-.012 1.562.859 2.835 1.945 2.843 1.086.009 1.975-1.251 1.987-2.814Z"/><path fill="#3F3D56" d="M124.122 353.783c.012-1.563-.859-2.836-1.945-2.844-1.085-.008-1.975 1.252-1.987 2.814-.012 1.563.859 2.836 1.945 2.844 1.086.008 1.975-1.252 1.987-2.814Z"/><path fill="#E6E6E6" d="M333.876 262.107c.247-1.702-1.534-3.37-3.978-3.726-2.444-.356-4.626.735-4.873 2.437-.248 1.702 1.533 3.37 3.977 3.726 2.445.356 4.627-.735 4.874-2.437Z"/><path fill="#3F3D56" d="M362.977 259.265c.247-1.702-1.533-3.37-3.978-3.726-2.444-.356-4.626.735-4.873 2.437-.248 1.702 1.533 3.37 3.977 3.726 2.445.356 4.627-.735 4.874-2.437Z"/><path fill="#FF6584" d="M325.907 238.525c.247-1.701-1.534-3.37-3.978-3.726-2.444-.356-4.626.736-4.874 2.437-.247 1.702 1.534 3.371 3.978 3.727 2.444.355 4.626-.736 4.874-2.438Z"/><path fill="#E6E6E6" d="M313.262 228.866c.012-1.562-.859-2.836-1.945-2.844-1.086-.008-1.976 1.252-1.987 2.814-.012 1.563.859 2.836 1.944 2.844 1.086.008 1.976-1.251 1.988-2.814Z"/><path fill="#3F3D56" d="M308.974 210.874c.012-1.562-.859-2.835-1.945-2.843-1.086-.009-1.976 1.251-1.988 2.814-.011 1.562.859 2.835 1.945 2.844 1.086.008 1.976-1.252 1.988-2.815Z"/><path fill="#E6E6E6" d="M342.32 242.538c.012-1.562-.858-2.835-1.944-2.843-1.086-.009-1.976 1.251-1.988 2.814-.012 1.562.859 2.835 1.945 2.844 1.086.008 1.976-1.252 1.987-2.815Z"/><path fill="#FF6584" d="M328.258 249.566c.011-1.562-.859-2.835-1.945-2.843-1.086-.009-1.976 1.251-1.988 2.814-.012 1.562.859 2.835 1.945 2.844 1.086.008 1.976-1.252 1.988-2.815Z"/><path fill="#3F3D56" d="M347.834 262.556c.011-1.562-.859-2.836-1.945-2.844-1.086-.008-1.976 1.252-1.988 2.814-.012 1.563.859 2.836 1.945 2.844 1.086.008 1.976-1.252 1.988-2.814Z"/><path fill="#fff" d="M225.571 93.278c.248-1.702-1.533-3.37-3.977-3.726-2.445-.356-4.627.735-4.874 2.437-.247 1.702 1.533 3.37 3.978 3.726 2.444.356 4.626-.735 4.873-2.437Z"/><path fill="#3F3D56" d="M254.672 90.436c.248-1.702-1.533-3.37-3.977-3.726-2.445-.356-4.627.735-4.874 2.437-.247 1.702 1.534 3.37 3.978 3.726 2.444.356 4.626-.735 4.873-2.437Z"/><path fill="#FF6584" d="M217.603 69.697c.247-1.702-1.534-3.37-3.978-3.727-2.444-.355-4.626.736-4.874 2.438-.247 1.701 1.534 3.37 3.978 3.726 2.444.356 4.626-.736 4.874-2.438Z"/><path fill="#E6E6E6" d="M204.957 60.037c.012-1.562-.859-2.836-1.944-2.844-1.086-.008-1.976 1.252-1.988 2.814-.012 1.563.859 2.836 1.945 2.844 1.086.008 1.976-1.251 1.987-2.814Z"/><path fill="#3F3D56" d="M200.669 42.045c.012-1.562-.859-2.835-1.945-2.843-1.086-.009-1.975 1.251-1.987 2.814-.012 1.562.859 2.836 1.945 2.844 1.085.008 1.975-1.252 1.987-2.815Z"/><path fill="#E6E6E6" d="M234.016 73.71c.012-1.563-.859-2.836-1.945-2.844-1.086-.009-1.976 1.251-1.988 2.814-.011 1.562.859 2.835 1.945 2.844 1.086.008 1.976-1.252 1.988-2.814Z"/><path fill="#FF6584" d="M219.953 80.737c.012-1.562-.859-2.835-1.945-2.843-1.086-.009-1.976 1.251-1.988 2.814-.011 1.562.859 2.835 1.945 2.844 1.086.008 1.976-1.252 1.988-2.815Z"/><path fill="#3F3D56" d="M239.529 93.727c.012-1.562-.859-2.836-1.945-2.844-1.086-.008-1.976 1.252-1.987 2.814-.012 1.563.859 2.836 1.944 2.844 1.086.008 1.976-1.251 1.988-2.814Z"/></g><defs><clipPath id="a"><path fill="#fff" d="M0 0h363v415H0z"/></clipPath></defs></svg>